<?xml version="1.0" encoding="UTF-8" standalone="no"?>
<!-- Created with Inkscape (http://www.inkscape.org/) -->

<svg
   xmlns:dc="http://purl.org/dc/elements/1.1/"
   xmlns:cc="http://creativecommons.org/ns#"
   xmlns:rdf="http://www.w3.org/1999/02/22-rdf-syntax-ns#"
   xmlns:svg="http://www.w3.org/2000/svg"
   xmlns="http://www.w3.org/2000/svg"
   xmlns:xlink="http://www.w3.org/1999/xlink"
   xmlns:sodipodi="http://sodipodi.sourceforge.net/DTD/sodipodi-0.dtd"
   xmlns:inkscape="http://www.inkscape.org/namespaces/inkscape"
   width="36.528"
   height="64"
   viewBox="0 0 9.6647 16.933334"
   version="1.1"
   id="svg8"
   inkscape:version="0.92.4 5da689c313, 2019-01-14"
   sodipodi:docname="blue_pawn.svg">
  <defs
     id="defs2">
    <linearGradient
       id="linearGradient995"
       inkscape:collect="always">
      <stop
         id="stop989"
         offset="0"
         style="stop-color:#c0beff;stop-opacity:1" />
      <stop
         style="stop-color:#0600ff;stop-opacity:1"
         offset="0.60000002"
         id="stop991" />
      <stop
         id="stop993"
         offset="1"
         style="stop-color:#040088;stop-opacity:1" />
    </linearGradient>
    <linearGradient
       inkscape:collect="always"
       id="linearGradient987">
      <stop
         style="stop-color:#c1ffbe;stop-opacity:1"
         offset="0"
         id="stop981" />
      <stop
         id="stop983"
         offset="0.60000002"
         style="stop-color:#0cff00;stop-opacity:1" />
      <stop
         style="stop-color:#068800;stop-opacity:1"
         offset="1"
         id="stop985" />
    </linearGradient>
    <linearGradient
       inkscape:collect="always"
       id="linearGradient874">
      <stop
         style="stop-color:#fffdbe;stop-opacity:1"
         offset="0"
         id="stop938" />
      <stop
         id="stop940"
         offset="0.60000002"
         style="stop-color:#f8ff00;stop-opacity:1" />
      <stop
         style="stop-color:#7c8800;stop-opacity:1"
         offset="1"
         id="stop942" />
    </linearGradient>
    <linearGradient
       id="linearGradient874-3"
       inkscape:collect="always">
      <stop
         id="stop870"
         offset="0"
         style="stop-color:#ffbebe;stop-opacity:1" />
      <stop
         style="stop-color:#ff0000;stop-opacity:1"
         offset="0.60000002"
         id="stop876" />
      <stop
         id="stop872"
         offset="1"
         style="stop-color:#880000;stop-opacity:1" />
    </linearGradient>
    <radialGradient
       inkscape:collect="always"
       xlink:href="#linearGradient874-3"
       id="radialGradient864"
       cx="-13.844858"
       cy="132.09039"
       fx="-13.844858"
       fy="132.09039"
       r="10.121702"
       gradientTransform="matrix(1.8016983,0,0,1.8016983,10.764191,-106.23182)"
       gradientUnits="userSpaceOnUse" />
    <radialGradient
       inkscape:collect="always"
       xlink:href="#linearGradient874-3"
       id="radialGradient866"
       cx="-15.684112"
       cy="148.68393"
       fx="-15.684112"
       fy="148.68393"
       r="10.255337"
       gradientTransform="matrix(1.3185558,0,0,1.0156421,4.9962652,-1.9219903)"
       gradientUnits="userSpaceOnUse" />
    <radialGradient
       inkscape:collect="always"
       xlink:href="#linearGradient874-3"
       id="radialGradient868"
       cx="-15.929865"
       cy="155.00296"
       fx="-15.929865"
       fy="155.00296"
       r="10.121702"
       gradientTransform="matrix(1.1380112,0,1.244583e-8,1.194308,1.7372208,-30.608175)"
       gradientUnits="userSpaceOnUse" />
    <radialGradient
       inkscape:collect="always"
       xlink:href="#linearGradient874"
       id="radialGradient922"
       gradientUnits="userSpaceOnUse"
       gradientTransform="matrix(1.1380112,0,1.244583e-8,1.194308,33.487222,-30.608175)"
       cx="-15.929865"
       cy="155.00296"
       fx="-15.929865"
       fy="155.00296"
       r="10.121702" />
    <radialGradient
       inkscape:collect="always"
       xlink:href="#linearGradient874"
       id="radialGradient924"
       gradientUnits="userSpaceOnUse"
       gradientTransform="matrix(1.3185558,0,0,1.0156421,36.746267,-1.9219903)"
       cx="-15.684112"
       cy="148.68393"
       fx="-15.684112"
       fy="148.68393"
       r="10.255337" />
    <radialGradient
       inkscape:collect="always"
       xlink:href="#linearGradient874"
       id="radialGradient926"
       gradientUnits="userSpaceOnUse"
       gradientTransform="matrix(1.8016983,0,0,1.8016983,42.514193,-106.23182)"
       cx="-13.844858"
       cy="132.09039"
       fx="-13.844858"
       fy="132.09039"
       r="10.121702" />
    <radialGradient
       inkscape:collect="always"
       xlink:href="#linearGradient987"
       id="radialGradient961"
       gradientUnits="userSpaceOnUse"
       gradientTransform="matrix(1.1380112,0,1.244583e-8,1.194308,1.7372208,-30.608175)"
       cx="-15.929865"
       cy="155.00296"
       fx="-15.929865"
       fy="155.00296"
       r="10.121702" />
    <radialGradient
       inkscape:collect="always"
       xlink:href="#linearGradient987"
       id="radialGradient963"
       gradientUnits="userSpaceOnUse"
       gradientTransform="matrix(1.3185558,0,0,1.0156421,4.9962652,-1.9219903)"
       cx="-15.684112"
       cy="148.68393"
       fx="-15.684112"
       fy="148.68393"
       r="10.255337" />
    <radialGradient
       inkscape:collect="always"
       xlink:href="#linearGradient987"
       id="radialGradient965"
       gradientUnits="userSpaceOnUse"
       gradientTransform="matrix(1.8016983,0,0,1.8016983,10.764191,-106.23182)"
       cx="-13.844858"
       cy="132.09039"
       fx="-13.844858"
       fy="132.09039"
       r="10.121702" />
    <radialGradient
       inkscape:collect="always"
       xlink:href="#linearGradient995"
       id="radialGradient967"
       gradientUnits="userSpaceOnUse"
       gradientTransform="matrix(1.1380112,0,1.244583e-8,1.194308,33.487222,-30.608175)"
       cx="-15.929865"
       cy="155.00296"
       fx="-15.929865"
       fy="155.00296"
       r="10.121702" />
    <radialGradient
       inkscape:collect="always"
       xlink:href="#linearGradient995"
       id="radialGradient969"
       gradientUnits="userSpaceOnUse"
       gradientTransform="matrix(1.3185558,0,0,1.0156421,36.746267,-1.9219903)"
       cx="-15.684112"
       cy="148.68393"
       fx="-15.684112"
       fy="148.68393"
       r="10.255337" />
    <radialGradient
       inkscape:collect="always"
       xlink:href="#linearGradient995"
       id="radialGradient971"
       gradientUnits="userSpaceOnUse"
       gradientTransform="matrix(1.8016983,0,0,1.8016983,42.514193,-106.23182)"
       cx="-13.844858"
       cy="132.09039"
       fx="-13.844858"
       fy="132.09039"
       r="10.121702" />
  </defs>
  <sodipodi:namedview
     id="base"
     pagecolor="#ffffff"
     bordercolor="#666666"
     borderopacity="1.0"
     inkscape:pageopacity="0.0"
     inkscape:pageshadow="2"
     inkscape:zoom="0.5"
     inkscape:cx="-36.589714"
     inkscape:cy="-126.49542"
     inkscape:document-units="mm"
     inkscape:current-layer="layer1"
     showgrid="false"
     showguides="true"
     inkscape:guide-bbox="true"
     inkscape:window-width="1366"
     inkscape:window-height="713"
     inkscape:window-x="0"
     inkscape:window-y="0"
     inkscape:window-maximized="1"
     units="px" />
  <metadata
     id="metadata5">
    <rdf:RDF>
      <cc:Work
         rdf:about="">
        <dc:format>image/svg+xml</dc:format>
        <dc:type
           rdf:resource="http://purl.org/dc/dcmitype/StillImage" />
        <dc:title></dc:title>
      </cc:Work>
    </rdf:RDF>
  </metadata>
  <g
     inkscape:label="Camada 1"
     inkscape:groupmode="layer"
     id="layer1"
     transform="translate(0,-280.06665)">
    <g
       id="g936"
       transform="matrix(0.4701417,0,0,0.4701417,-31.420468,220.84769)">
      <path
         sodipodi:nodetypes="sssss"
         inkscape:connector-curvature="0"
         id="circle830"
         d="m -8.8771154,156.77884 c 5e-7,3.09979 -4.3077826,4.45344 -9.6217026,4.45344 -5.31392,0 -9.621702,-1.35365 -9.621702,-4.45344 0,-3.09979 4.307782,-5.61266 9.621702,-5.61266 5.31392,0 9.6217031,2.51287 9.6217026,5.61266 z"
         style="opacity:1;fill:url(#radialGradient868);fill-opacity:1;stroke:#800000;stroke-width:1;stroke-miterlimit:4;stroke-dasharray:none;stroke-dashoffset:0;stroke-opacity:1" />
      <path
         sodipodi:nodetypes="sszs"
         inkscape:connector-curvature="0"
         id="path833"
         d="m -28.254155,154.51847 c 0,4.88769 19.5106746,3.94633 19.5106746,1e-5 0,0 -5.1042516,-11.47646 -10.4903286,-11.47646 -5.386077,0 -9.020346,11.47645 -9.020346,11.47645 z"
         style="fill:url(#radialGradient866);fill-opacity:1;stroke:#800000;stroke-width:1;stroke-linecap:butt;stroke-linejoin:miter;stroke-miterlimit:4;stroke-dasharray:none;stroke-opacity:1" />
      <path
         inkscape:connector-curvature="0"
         id="path826"
         d="m -8.6970042,135.83647 a 9.6217022,9.6217022 0 0 1 -9.6217018,9.6217 9.6217022,9.6217022 0 0 1 -9.621703,-9.6217 9.6217022,9.6217022 0 0 1 9.621703,-9.6217 9.6217022,9.6217022 0 0 1 9.6217018,9.6217 z"
         style="opacity:1;fill:url(#radialGradient864);fill-opacity:1;stroke:#800000;stroke-width:1;stroke-miterlimit:4;stroke-dasharray:none;stroke-dashoffset:0;stroke-opacity:1" />
    </g>
    <g
       id="g931"
       style="stroke:#808000"
       transform="matrix(0.4701417,0,0,0.4701417,-62.262676,220.96289)">
      <path
         style="opacity:1;fill:url(#radialGradient922);fill-opacity:1;stroke:#808000;stroke-width:1;stroke-miterlimit:4;stroke-dasharray:none;stroke-dashoffset:0;stroke-opacity:1"
         d="m 22.872885,156.77884 c 1e-6,3.09979 -4.307783,4.45344 -9.621703,4.45344 -5.3139192,0 -9.6217009,-1.35365 -9.6217009,-4.45344 0,-3.09979 4.3077817,-5.61266 9.6217009,-5.61266 5.31392,0 9.621704,2.51287 9.621703,5.61266 z"
         id="path916"
         inkscape:connector-curvature="0"
         sodipodi:nodetypes="sssss" />
      <path
         style="fill:url(#radialGradient924);fill-opacity:1;stroke:#808000;stroke-width:1;stroke-linecap:butt;stroke-linejoin:miter;stroke-miterlimit:4;stroke-dasharray:none;stroke-opacity:1"
         d="m 3.4958461,154.51847 c 0,4.88769 19.5106739,3.94633 19.5106739,1e-5 0,0 -5.104252,-11.47646 -10.490329,-11.47646 -5.3860762,0 -9.0203449,11.47645 -9.0203449,11.47645 z"
         id="path918"
         inkscape:connector-curvature="0"
         sodipodi:nodetypes="sszs" />
      <path
         style="opacity:1;fill:url(#radialGradient926);fill-opacity:1;stroke:#808000;stroke-width:1;stroke-miterlimit:4;stroke-dasharray:none;stroke-dashoffset:0;stroke-opacity:1"
         d="m 23.052997,135.83647 a 9.6217022,9.6217022 0 0 1 -9.621703,9.6217 9.6217022,9.6217022 0 0 1 -9.6217019,-9.6217 9.6217022,9.6217022 0 0 1 9.6217019,-9.6217 9.6217022,9.6217022 0 0 1 9.621703,9.6217 z"
         id="path920"
         inkscape:connector-curvature="0" />
    </g>
    <g
       id="g951"
       transform="matrix(0.4701417,0,0,0.4701417,-16.64401,220.96289)">
      <path
         style="opacity:1;fill:url(#radialGradient961);fill-opacity:1;stroke:#008000;stroke-width:1;stroke-miterlimit:4;stroke-dasharray:none;stroke-dashoffset:0;stroke-opacity:1"
         d="m -8.8771154,156.77884 c 5e-7,3.09979 -4.3077826,4.45344 -9.6217026,4.45344 -5.31392,0 -9.621702,-1.35365 -9.621702,-4.45344 0,-3.09979 4.307782,-5.61266 9.621702,-5.61266 5.31392,0 9.6217031,2.51287 9.6217026,5.61266 z"
         id="path945"
         inkscape:connector-curvature="0"
         sodipodi:nodetypes="sssss" />
      <path
         style="fill:url(#radialGradient963);fill-opacity:1;stroke:#008000;stroke-width:1;stroke-linecap:butt;stroke-linejoin:miter;stroke-miterlimit:4;stroke-dasharray:none;stroke-opacity:1"
         d="m -28.254155,154.51847 c 0,4.88769 19.5106746,3.94633 19.5106746,1e-5 0,0 -5.1042516,-11.47646 -10.4903286,-11.47646 -5.386077,0 -9.020346,11.47645 -9.020346,11.47645 z"
         id="path947"
         inkscape:connector-curvature="0"
         sodipodi:nodetypes="sszs" />
      <path
         style="opacity:1;fill:url(#radialGradient965);fill-opacity:1;stroke:#008000;stroke-width:1;stroke-miterlimit:4;stroke-dasharray:none;stroke-dashoffset:0;stroke-opacity:1"
         d="m -8.6970042,135.83647 a 9.6217022,9.6217022 0 0 1 -9.6217018,9.6217 9.6217022,9.6217022 0 0 1 -9.621703,-9.6217 9.6217022,9.6217022 0 0 1 9.621703,-9.6217 9.6217022,9.6217022 0 0 1 9.6217018,9.6217 z"
         id="path949"
         inkscape:connector-curvature="0" />
    </g>
    <g
       style="stroke:#808000"
       id="g959"
       transform="matrix(0.4701417,0,0,0.4701417,-1.4085091,220.84769)">
      <path
         sodipodi:nodetypes="sssss"
         inkscape:connector-curvature="0"
         id="path953"
         d="m 22.872885,156.77884 c 1e-6,3.09979 -4.307783,4.45344 -9.621703,4.45344 -5.3139192,0 -9.6217009,-1.35365 -9.6217009,-4.45344 0,-3.09979 4.3077817,-5.61266 9.6217009,-5.61266 5.31392,0 9.621704,2.51287 9.621703,5.61266 z"
         style="opacity:1;fill:url(#radialGradient967);fill-opacity:1;stroke:#000080;stroke-width:1;stroke-miterlimit:4;stroke-dasharray:none;stroke-dashoffset:0;stroke-opacity:1" />
      <path
         sodipodi:nodetypes="sszs"
         inkscape:connector-curvature="0"
         id="path955"
         d="m 3.4958461,154.51847 c 0,4.88769 19.5106739,3.94633 19.5106739,1e-5 0,0 -5.104252,-11.47646 -10.490329,-11.47646 -5.3860762,0 -9.0203449,11.47645 -9.0203449,11.47645 z"
         style="fill:url(#radialGradient969);fill-opacity:1;stroke:#000080;stroke-width:1;stroke-linecap:butt;stroke-linejoin:miter;stroke-miterlimit:4;stroke-dasharray:none;stroke-opacity:1" />
      <path
         inkscape:connector-curvature="0"
         id="path957"
         d="m 23.052997,135.83647 a 9.6217022,9.6217022 0 0 1 -9.621703,9.6217 9.6217022,9.6217022 0 0 1 -9.6217019,-9.6217 9.6217022,9.6217022 0 0 1 9.6217019,-9.6217 9.6217022,9.6217022 0 0 1 9.621703,9.6217 z"
         style="opacity:1;fill:url(#radialGradient971);fill-opacity:1;stroke:#000080;stroke-width:1;stroke-miterlimit:4;stroke-dasharray:none;stroke-dashoffset:0;stroke-opacity:1" />
    </g>
  </g>
</svg>
